<svg xmlns="http://www.w3.org/2000/svg" xmlns:xlink="http://www.w3.org/1999/xlink" width="500" zoomAndPan="magnify" viewBox="0 0 375 149.999998" height="200" preserveAspectRatio="xMidYMid meet" version="1.2"><defs><clipPath id="54bb03870c"><path d="M 321.515625 63.554688 L 344.410156 63.554688 L 344.410156 86.445312 L 321.515625 86.445312 Z M 321.515625 63.554688 "/></clipPath><clipPath id="9b1b507d05"><path d="M 332.960938 63.554688 C 326.640625 63.554688 321.515625 68.679688 321.515625 75 C 321.515625 81.320312 326.640625 86.445312 332.960938 86.445312 C 339.285156 86.445312 344.410156 81.320312 344.410156 75 C 344.410156 68.679688 339.285156 63.554688 332.960938 63.554688 Z M 332.960938 63.554688 "/></clipPath><clipPath id="ddfe4d7621"><path d="M 351.710938 70.042969 L 368.289062 70.042969 L 368.289062 86.621094 L 351.710938 86.621094 Z M 351.710938 70.042969 "/></clipPath><clipPath id="0750eb6d9a"><path d="M 360 70.042969 C 355.421875 70.042969 351.710938 73.753906 351.710938 78.332031 C 351.710938 82.910156 355.421875 86.621094 360 86.621094 C 364.578125 86.621094 368.289062 82.910156 368.289062 78.332031 C 368.289062 73.753906 364.578125 70.042969 360 70.042969 Z M 360 70.042969 "/></clipPath><clipPath id="114a179f0e"><path d="M 361.324219 90.203125 L 372.75 90.203125 L 372.75 101.625 L 361.324219 101.625 Z M 361.324219 90.203125 "/></clipPath><clipPath id="2a61f3b2dd"><path d="M 367.039062 90.203125 C 363.882812 90.203125 361.324219 92.757812 361.324219 95.914062 C 361.324219 99.070312 363.882812 101.625 367.039062 101.625 C 370.191406 101.625 372.75 99.070312 372.75 95.914062 C 372.75 92.757812 370.191406 90.203125 367.039062 90.203125 Z M 367.039062 90.203125 "/></clipPath><clipPath id="17fbeefb35"><path d="M 352.511719 110.882812 L 363.574219 110.882812 L 363.574219 121.945312 L 352.511719 121.945312 Z M 352.511719 110.882812 "/></clipPath><clipPath id="40332d2082"><path d="M 358.042969 110.882812 C 354.988281 110.882812 352.511719 113.359375 352.511719 116.414062 C 352.511719 119.46875 354.988281 121.945312 358.042969 121.945312 C 361.097656 121.945312 363.574219 119.46875 363.574219 116.414062 C 363.574219 113.359375 361.097656 110.882812 358.042969 110.882812 Z M 358.042969 110.882812 "/></clipPath><clipPath id="c8afb4c6a9"><path d="M 330.664062 121.945312 L 344.410156 121.945312 L 344.410156 135.6875 L 330.664062 135.6875 Z M 330.664062 121.945312 "/></clipPath><clipPath id="883f2fd5c8"><path d="M 337.539062 121.945312 C 333.742188 121.945312 330.664062 125.019531 330.664062 128.816406 C 330.664062 132.609375 333.742188 135.6875 337.539062 135.6875 C 341.332031 135.6875 344.410156 132.609375 344.410156 128.816406 C 344.410156 125.019531 341.332031 121.945312 337.539062 121.945312 Z M 337.539062 121.945312 "/></clipPath><clipPath id="ef1c19170f"><path d="M 306.066406 133.5 L 316.785156 133.5 L 316.785156 144.222656 L 306.066406 144.222656 Z M 306.066406 133.5 "/></clipPath><clipPath id="eabff20051"><path d="M 311.425781 133.5 C 308.464844 133.5 306.066406 135.898438 306.066406 138.859375 C 306.066406 141.820312 308.464844 144.222656 311.425781 144.222656 C 314.386719 144.222656 316.785156 141.820312 316.785156 138.859375 C 316.785156 135.898438 314.386719 133.5 311.425781 133.5 Z M 311.425781 133.5 "/></clipPath><clipPath id="f09900c648"><path d="M 277.558594 138.109375 L 285.105469 138.109375 L 285.105469 145.660156 L 277.558594 145.660156 Z M 277.558594 138.109375 "/></clipPath><clipPath id="bfb787dfb9"><path d="M 281.332031 138.109375 C 279.25 138.109375 277.558594 139.800781 277.558594 141.882812 C 277.558594 143.96875 279.25 145.660156 281.332031 145.660156 C 283.417969 145.660156 285.105469 143.96875 285.105469 141.882812 C 285.105469 139.800781 283.417969 138.109375 281.332031 138.109375 Z M 281.332031 138.109375 "/></clipPath><clipPath id="fcc19d66b7"><path d="M 251.199219 135 L 256.558594 135 L 256.558594 140.359375 L 251.199219 140.359375 Z M 251.199219 135 "/></clipPath><clipPath id="0d76a4f517"><path d="M 253.878906 135 C 252.398438 135 251.199219 136.199219 251.199219 137.679688 C 251.199219 139.160156 252.398438 140.359375 253.878906 140.359375 C 255.359375 140.359375 256.558594 139.160156 256.558594 137.679688 C 256.558594 136.199219 255.359375 135 253.878906 135 Z M 253.878906 135 "/></clipPath><clipPath id="7cb96a0b0e"><path d="M 231.785156 121.945312 L 235.46875 121.945312 L 235.46875 125.628906 L 231.785156 125.628906 Z M 231.785156 121.945312 "/></clipPath><clipPath id="e85bd7091b"><path d="M 233.625 121.945312 C 232.609375 121.945312 231.785156 122.769531 231.785156 123.785156 C 231.785156 124.804688 232.609375 125.628906 233.625 125.628906 C 234.644531 125.628906 235.46875 124.804688 235.46875 123.785156 C 235.46875 122.769531 234.644531 121.945312 233.625 121.945312 Z M 233.625 121.945312 "/></clipPath></defs><g id="f6c526ee5d"><g style="fill:#ededed;fill-opacity:1;"><g transform="translate(3.342189, 103.488971)"><path style="stroke:none" d="M 4.976562 -32.503906 C 4.976562 -13.273438 17.960938 1.171875 37.285156 1.171875 C 56.511719 1.171875 69.59375 -13.273438 69.59375 -32.503906 C 69.59375 -51.730469 56.511719 -66.175781 37.285156 -66.175781 C 17.960938 -66.175781 4.976562 -51.730469 4.976562 -32.503906 Z M 61.199219 -32.503906 C 61.199219 -17.375 51.828125 -6.050781 37.285156 -6.050781 C 22.644531 -6.050781 13.371094 -17.375 13.371094 -32.503906 C 13.371094 -47.730469 22.644531 -58.953125 37.285156 -58.953125 C 51.828125 -58.953125 61.199219 -47.730469 61.199219 -32.503906 Z M 61.199219 -32.503906 "/></g></g><g style="fill:#ededed;fill-opacity:1;"><g transform="translate(84.638918, 103.488971)"><path style="stroke:none" d="M 54.855469 0 L 37.285156 -26.546875 C 46.167969 -27.328125 54.171875 -33.769531 54.171875 -45.484375 C 54.171875 -57.488281 45.679688 -65.101562 33.769531 -65.101562 L 7.613281 -65.101562 L 7.613281 0 L 15.714844 0 L 15.714844 -25.867188 L 28.695312 -25.867188 L 45.289062 0 Z M 45.777344 -45.484375 C 45.777344 -38.164062 40.507812 -32.992188 32.796875 -32.992188 L 15.714844 -32.992188 L 15.714844 -57.878906 L 32.796875 -57.878906 C 40.507812 -57.878906 45.777344 -52.804688 45.777344 -45.484375 Z M 45.777344 -45.484375 "/></g></g><g style="fill:#ededed;fill-opacity:1;"><g transform="translate(150.613428, 103.488971)"><path style="stroke:none" d="M 37.285156 0 C 49.191406 0 56.121094 -7.125 56.121094 -17.570312 C 56.121094 -25.378906 50.363281 -32.503906 43.433594 -33.574219 C 49.386719 -34.84375 54.855469 -40.3125 54.855469 -48.507812 C 54.855469 -58.269531 47.925781 -65.101562 36.601562 -65.101562 L 7.613281 -65.101562 L 7.613281 0 Z M 15.714844 -57.878906 L 35.234375 -57.878906 C 42.554688 -57.878906 46.460938 -53.195312 46.460938 -47.339844 C 46.460938 -41.382812 42.554688 -36.894531 35.234375 -36.894531 L 15.714844 -36.894531 Z M 15.714844 -29.671875 L 35.625 -29.671875 C 43.628906 -29.671875 47.730469 -24.402344 47.730469 -18.449219 C 47.730469 -11.515625 43.238281 -7.222656 35.625 -7.222656 L 15.714844 -7.222656 Z M 15.714844 -29.671875 "/></g></g><g style="fill:#ededed;fill-opacity:1;"><g transform="translate(218.637404, 103.488971)"><path style="stroke:none" d="M 15.714844 0 L 15.714844 -65.101562 L 7.613281 -65.101562 L 7.613281 0 Z M 15.714844 0 "/></g></g><g style="fill:#ededed;fill-opacity:1;"><g transform="translate(248.599819, 103.488971)"><path style="stroke:none" d="M 15.714844 0 L 15.714844 -65.101562 L 7.613281 -65.101562 L 7.613281 0 Z M 15.714844 0 "/></g></g><g style="fill:#ededed;fill-opacity:1;"><g transform="translate(278.562213, 103.488971)"><path style="stroke:none" d="M 31.820312 0 L 31.820312 -57.878906 L 52.511719 -57.878906 L 52.511719 -65.101562 L 3.125 -65.101562 L 3.125 -57.878906 L 23.71875 -57.878906 L 23.71875 0 Z M 31.820312 0 "/></g></g><g clip-rule="nonzero" clip-path="url(#54bb03870c)"><g clip-rule="nonzero" clip-path="url(#9b1b507d05)"><path style=" stroke:none;fill-rule:nonzero;fill:#ffffff;fill-opacity:1;" d="M 321.515625 63.554688 L 344.410156 63.554688 L 344.410156 86.445312 L 321.515625 86.445312 Z M 321.515625 63.554688 "/></g></g><g clip-rule="nonzero" clip-path="url(#ddfe4d7621)"><g clip-rule="nonzero" clip-path="url(#0750eb6d9a)"><path style=" stroke:none;fill-rule:nonzero;fill:#ffffff;fill-opacity:1;" d="M 351.710938 70.042969 L 368.289062 70.042969 L 368.289062 86.621094 L 351.710938 86.621094 Z M 351.710938 70.042969 "/></g></g><g clip-rule="nonzero" clip-path="url(#114a179f0e)"><g clip-rule="nonzero" clip-path="url(#2a61f3b2dd)"><path style=" stroke:none;fill-rule:nonzero;fill:#ffffff;fill-opacity:1;" d="M 361.324219 90.203125 L 372.75 90.203125 L 372.75 101.625 L 361.324219 101.625 Z M 361.324219 90.203125 "/></g></g><g clip-rule="nonzero" clip-path="url(#17fbeefb35)"><g clip-rule="nonzero" clip-path="url(#40332d2082)"><path style=" stroke:none;fill-rule:nonzero;fill:#ffffff;fill-opacity:1;" d="M 352.511719 110.882812 L 363.574219 110.882812 L 363.574219 121.945312 L 352.511719 121.945312 Z M 352.511719 110.882812 "/></g></g><g clip-rule="nonzero" clip-path="url(#c8afb4c6a9)"><g clip-rule="nonzero" clip-path="url(#883f2fd5c8)"><path style=" stroke:none;fill-rule:nonzero;fill:#ffffff;fill-opacity:1;" d="M 330.664062 121.945312 L 344.410156 121.945312 L 344.410156 135.6875 L 330.664062 135.6875 Z M 330.664062 121.945312 "/></g></g><g clip-rule="nonzero" clip-path="url(#ef1c19170f)"><g clip-rule="nonzero" clip-path="url(#eabff20051)"><path style=" stroke:none;fill-rule:nonzero;fill:#ffffff;fill-opacity:1;" d="M 306.066406 133.5 L 316.785156 133.5 L 316.785156 144.222656 L 306.066406 144.222656 Z M 306.066406 133.5 "/></g></g><g clip-rule="nonzero" clip-path="url(#f09900c648)"><g clip-rule="nonzero" clip-path="url(#bfb787dfb9)"><path style=" stroke:none;fill-rule:nonzero;fill:#ffffff;fill-opacity:1;" d="M 277.558594 138.109375 L 285.105469 138.109375 L 285.105469 145.660156 L 277.558594 145.660156 Z M 277.558594 138.109375 "/></g></g><g clip-rule="nonzero" clip-path="url(#fcc19d66b7)"><g clip-rule="nonzero" clip-path="url(#0d76a4f517)"><path style=" stroke:none;fill-rule:nonzero;fill:#ffffff;fill-opacity:1;" d="M 251.199219 135 L 256.558594 135 L 256.558594 140.359375 L 251.199219 140.359375 Z M 251.199219 135 "/></g></g><g clip-rule="nonzero" clip-path="url(#7cb96a0b0e)"><g clip-rule="nonzero" clip-path="url(#e85bd7091b)"><path style=" stroke:none;fill-rule:nonzero;fill:#ffffff;fill-opacity:1;" d="M 231.785156 121.945312 L 235.46875 121.945312 L 235.46875 125.628906 L 231.785156 125.628906 Z M 231.785156 121.945312 "/></g></g></g></svg>